<?xml version="1.0" encoding="utf-8"?>
<!-- Generator: Adobe Illustrator 15.0.2, SVG Export Plug-In . SVG Version: 6.00 Build 0)  -->
<!DOCTYPE svg PUBLIC "-//W3C//DTD SVG 1.1//EN" "http://www.w3.org/Graphics/SVG/1.1/DTD/svg11.dtd">
<svg version="1.1" id="Layer_1" xmlns="http://www.w3.org/2000/svg" xmlns:xlink="http://www.w3.org/1999/xlink" x="0px" y="0px"
   width="48px" height="40px" viewBox="0 0 48 40" enable-background="new 0 0 48 40" xml:space="preserve">
<path fill="#333333" d="M27,8.233V5h0.183c1.744,0,3.158-1.119,3.158-2.5c0-1.381-1.414-2.5-3.158-2.5H20.77
  c-1.744,0-3.157,1.119-3.157,2.5c0,1.381,1.413,2.5,3.157,2.5H21v3.246C10.824,9.733,3,18.527,3,29.186
  c0,0.951,0.766,2.809,1.686,2.809c9.773-0.002,29.968-0.002,38.708,0.006c0.922,0.002,1.688-1.859,1.688-2.814
  C45.082,18.499,37.216,9.686,27,8.233z"/>
<path fill="#333333" d="M48,37c0,1.657-1.336,3-2.982,3H2.982C1.335,40,0,38.657,0,37l0,0c0-1.656,1.335-3,2.982-3h42.035
  C46.664,34,48,35.344,48,37L48,37z"/>
</svg>